PathFileType	4	(X/Y/Z)	C:\Users\Basilio\Documents\Thesis Gigler\squatting_fais\c3dfiles\054\SLS_back_pre4\markers_experimental.trc
DataRate	CameraRate	NumFrames	NumMarkers	Units	OrigDataRate	OrigDataStartFrame	OrigNumFrames
200.000000	200.000000	4	61	mm	200.000000	383	1535
Frame#	Time	FHD			LBHD			RBHD			C7			T10			CLAV			LSHO			LUUPA			LMUPA			LDUPA			LLEP			LMEP			LRAD			LUL			LRFIN			RSHO			RUPA1			RMUPA			RDUPA			RLEP			RMEP			RRAD			RUL			RUFIN			LASI			RASI			USACR			LSACR			RSACR			LTHI1			LTHI2			LTHI3			LTHI4			LLFC			LMFC			LTIB1			LTIB2			LTIB3			LTIB4			LLMAL			LMMAL			LHEE			LMT1			LMT2			LMT5			RTHI			RTHI2			RTHI3			RTHI4			RLFC			RMFC			RTIB1			RTIB2			RTIB3			RTIB4			RLMAL			RMMAL			RHEE			RMT1			RMT2			RMT5			
		X1	Y1	Z1	X2	Y2	Z2	X3	Y3	Z3	X4	Y4	Z4	X5	Y5	Z5	X6	Y6	Z6	X7	Y7	Z7	X8	Y8	Z8	X9	Y9	Z9	X10	Y10	Z10	X11	Y11	Z11	X12	Y12	Z12	X13	Y13	Z13	X14	Y14	Z14	X15	Y15	Z15	X16	Y16	Z16	X17	Y17	Z17	X18	Y18	Z18	X19	Y19	Z19	X20	Y20	Z20	X21	Y21	Z21	X22	Y22	Z22	X23	Y23	Z23	X24	Y24	Z24	X25	Y25	Z25	X26	Y26	Z26	X27	Y27	Z27	X28	Y28	Z28	X29	Y29	Z29	X30	Y30	Z30	X31	Y31	Z31	X32	Y32	Z32	X33	Y33	Z33	X34	Y34	Z34	X35	Y35	Z35	X36	Y36	Z36	X37	Y37	Z37	X38	Y38	Z38	X39	Y39	Z39	X40	Y40	Z40	X41	Y41	Z41	X42	Y42	Z42	X43	Y43	Z43	X44	Y44	Z44	X45	Y45	Z45	X46	Y46	Z46	X47	Y47	Z47	X48	Y48	Z48	X49	Y49	Z49	X50	Y50	Z50	X51	Y51	Z51	X52	Y52	Z52	X53	Y53	Z53	X54	Y54	Z54	X55	Y55	Z55	X56	Y56	Z56	X57	Y57	Z57	X58	Y58	Z58	X59	Y59	Z59	X60	Y60	Z60	X61	Y61	Z61	

384	1.915	-194.6107635498047	1783.176025390625	-1060.65185546875	-355.3736877441407	1734.062377929688	-1135.867919921875	-376.8464355468751	1736.611083984375	-997.0428466796877	-407.0810546875001	1558.4404296875	-1053.738037109375	-413.7389526367189	1226.995849609375	-1051.128784179688	-259.4313659667969	1508.959716796875	-1056.088500976563	-335.1744689941407	1554.315307617188	-1208.608764648438	-177.7544708251953	1434.951293945313	-1323.54833984375	-146.5029449462891	1469.931762695313	-1309.787963867188	-109.0590286254883	1427.5576171875	-1331.267822265625	-50.62743759155275	1432.263427734375	-1325.685668945313	-51.95629501342775	1366.405883789063	-1280.877319335938	190.2461090087891	1465.282592773438	-1208.993774414063	218.9178924560547	1434.784423828125	-1275.027954101563	283.6514587402344	1490.038208007813	-1213.715087890625	-333.2598571777344	1560.165771484375	-909.253356933594	-178.6956329345703	1441.83935546875	-782.385192871094	-143.3298797607422	1471.866577148438	-794.2443847656252	-110.8624496459961	1424.229858398438	-772.263366699219	-65.63687896728517	1417.7958984375	-774.9356079101565	-70.80305480957033	1361.657836914063	-827.0145263671877	182.7635955810547	1482.300048828125	-905.3326416015627	196.5308990478516	1450.246948242188	-834.3479614257815	258.4270324707032	1517.089965820313	-900.0814208984377	-210.5345001220704	1057.345092773438	-1153.380615234375	-231.796615600586	1073.937622070313	-900.9257812500002	-410.0361633300782	1141.632690429688	-1045.294677734375	-412.8125915527345	1108.54931640625	-1071.619995117188	-417.536590576172	1109.974853515625	-1015.041748046875	-295.4350585937501	811.0434570312502	-1221.400146484375	-265.6678161621094	732.0864257812501	-1209.028442382813	-218.4341583251954	735.4782104492189	-1200.423706054688	-296.6671447753907	682.2581787109376	-1189.96337890625	-303.8527221679688	528.0317382812501	-1155.461181640625	-281.4563293457032	535.8648071289064	-1018.599243164063	-269.9860534667969	367.2582397460938	-1086.922607421875	-318.9034118652344	317.5523986816407	-1138.548950195313	-280.1239013671876	315.7135620117188	-1114.295776367188	-292.7087097167969	243.4407958984376	-1072.228393554688	-358.2908935546876	110.9048004150391	-1099.909423828125	-328.0313415527344	132.1898803710938	-1009.261047363281	-427.6191711425782	102.0032119750977	-1041.1171875	-216.4729156494141	54.95333862304689	-1020.149169921875	-208.8263702392579	54.91249465942384	-1069.668823242188	-260.8957519531251	39.83555221557618	-1120.7373046875	-237.1893463134766	784.7115478515627	-786.730895996094	-181.8963012695313	748.7576904296876	-773.6239013671877	-150.168685913086	759.7388305664064	-775.4317016601565	-178.3227081298828	665.0220947265626	-781.4229125976565	-180.4917602539063	605.7879028320314	-783.8345336914065	-105.3964233398438	589.0938110351564	-899.2576293945315	-215.262191772461	501.5074768066407	-803.0640258789065	-321.8047485351563	520.3662109375001	-802.0608520507815	-299.4878845214844	479.738250732422	-808.6749267578127	-324.4312133789063	441.6975708007814	-843.885925292969	-502.7975158691407	395.5532531738282	-875.3587646484377	-441.5822753906251	376.5535888671876	-948.2744750976565	-553.6176757812501	416.8475952148439	-951.1054687500002	-417.6743774414064	240.0500946044922	-921.438415527344	-424.5411682128907	244.5966186523438	-874.4351806640627	-482.6707763671876	268.3358764648438	-841.3544921875002	
385	1.92	-194.5325927734376	1783.12890625	-1060.921630859375	-355.3054504394532	1734.022705078125	-1136.152709960938	-376.7700805664063	1736.541137695313	-997.294128417969	-406.9223632812501	1558.405639648438	-1054.0126953125	-413.7106933593751	1227.048461914063	-1051.45654296875	-259.3121032714844	1508.895263671875	-1056.404174804688	-335.1431579589844	1554.298706054688	-1208.89111328125	-177.8061828613282	1434.872314453125	-1323.895751953125	-146.5000610351563	1469.898315429688	-1310.108276367188	-109.098503112793	1427.504760742188	-1331.648071289063	-50.72465896606447	1432.191284179688	-1326.085327148438	-51.94204711914064	1366.30810546875	-1281.188110351563	190.3211059570313	1465.210571289063	-1209.390380859375	217.9673767089844	1434.837280273438	-1275.209228515625	283.6807861328126	1489.96142578125	-1214.125244140625	-333.0650329589844	1560.156127929688	-909.5976562500002	-178.6398010253907	1441.871215820313	-782.6274414062502	-143.0587463378907	1471.778930664063	-794.580749511719	-110.7400894165039	1424.21044921875	-772.5454711914065	-65.43428039550783	1417.840576171875	-775.2402954101565	-70.63802337646486	1361.644897460938	-827.2902832031252	182.8909759521485	1482.324096679688	-905.6721801757815	196.5976715087891	1450.361450195313	-834.5979614257815	258.4515380859376	1517.245727539063	-900.4383544921877	-210.5458221435547	1057.292358398438	-1153.858154296875	-231.8023834228516	1073.790405273438	-901.2485351562502	-409.9988708496095	1141.599609375	-1045.662475585938	-412.7403259277345	1108.579223632813	-1072.054443359375	-417.454803466797	1109.980224609375	-1015.491455078125	-295.5182189941407	810.9287719726565	-1221.65869140625	-265.4241943359376	731.7083129882814	-1209.109619140625	-218.5266571044922	735.5224609375001	-1200.884765625	-296.6757507324219	682.2088012695314	-1190.248168945313	-303.7663269042969	527.8651123046876	-1155.5556640625	-281.3996887207032	535.8082275390626	-1018.81103515625	-270.0367431640626	367.1800842285157	-1087.099487304688	-318.8886108398438	317.4865722656251	-1138.691162109375	-280.1843566894532	315.6005859375001	-1114.476928710938	-292.7242736816407	243.4031982421876	-1072.364501953125	-358.0187072753907	110.7131576538086	-1100.01904296875	-328.0411071777344	132.2167205810547	-1009.288269042969	-427.6405029296876	102.0081634521485	-1041.121948242188	-216.4927520751954	54.96325683593751	-1020.18017578125	-208.8157043457032	54.89468002319337	-1069.719482421875	-260.8141784667969	39.7945671081543	-1120.730712890625	-237.3508605957032	784.5417480468752	-787.2382812500002	-182.1417388916016	748.5530395507814	-774.1373291015627	-150.3600463867188	759.4119873046876	-775.8638916015627	-178.8189239501953	664.7291259765626	-782.0096435546877	-181.270492553711	605.9327392578126	-784.4251098632815	-106.0564041137696	588.9741821289064	-900.0191040039065	-216.9312744140626	502.1165771484376	-804.4943847656252	-323.3431091308594	522.3336181640626	-803.228942871094	-301.4136352539063	481.4040527343751	-810.2390747070315	-326.9765319824219	443.8913574218751	-845.7036132812502	-505.9357299804689	400.2683105468751	-877.8740844726565	-444.5694274902345	380.8562622070313	-950.800476074219	-556.1340942382814	422.4376220703126	-953.4716796875002	-422.1313476562501	243.9906921386719	-925.1149902343752	-428.6651611328126	248.4870758056641	-877.857360839844	-486.6002502441407	272.2189941406251	-844.3353271484377	
386	1.925	-194.3453674316407	1783.149780273438	-1061.304565429688	-355.1373291015626	1733.975219726563	-1136.380493164063	-376.6707458496094	1736.51611328125	-997.5375976562502	-406.8107299804689	1558.374267578125	-1054.324951171875	-413.7732238769532	1227.049072265625	-1051.739990234375	-259.2491760253907	1508.8271484375	-1056.732543945313	-335.0108642578126	1554.189575195313	-1209.1103515625	-177.7788391113282	1434.769775390625	-1324.2734375	-146.3068084716797	1469.798217773438	-1310.487060546875	-108.9600830078125	1427.366577148438	-1332.048095703125	-50.1479835510254	1431.765747070313	-1326.329223632813	-51.99709701538087	1366.2392578125	-1281.537841796875	190.1817016601563	1465.359497070313	-1209.70263671875	218.8546752929688	1434.587768554688	-1275.867797851563	283.7455139160157	1489.866455078125	-1214.478759765625	-332.9021301269532	1560.109008789063	-909.9361572265627	-178.3133087158203	1441.955078125	-782.9099121093752	-142.8118133544922	1471.784912109375	-794.9246215820315	-110.5736083984375	1424.212524414063	-772.8293457031252	-65.09995269775392	1417.802368164063	-775.6967773437502	-70.41477966308595	1361.630493164063	-827.5684204101565	183.1498107910157	1482.392944335938	-906.148620605469	196.6635131835938	1450.412841796875	-834.8953857421877	258.5829467773438	1517.336059570313	-900.774353027344	-210.6028594970704	1057.19580078125	-1154.232055664063	-231.6584777832032	1073.514770507813	-901.6204223632815	-409.9667053222657	1141.61572265625	-1046.038940429688	-412.8485412597657	1108.606689453125	-1072.44189453125	-417.4126586914064	1109.961547851563	-1015.83544921875	-295.5316467285157	810.8381958007815	-1221.877075195313	-265.3817138671876	731.7114257812501	-1209.374145507813	-218.6479949951172	735.4558715820314	-1201.19873046875	-296.7025146484376	682.1958618164064	-1190.578125	-303.7643127441407	527.8734130859376	-1156.0498046875	-281.5822143554688	535.7933959960939	-1018.976928710938	-269.9875183105469	367.1932373046876	-1087.17724609375	-318.8421936035157	317.4042968750001	-1138.883544921875	-280.1993408203126	315.4760131835938	-1114.544921875	-292.6185302734376	243.2916412353516	-1072.476196289063	-358.4001159667969	110.900993347168	-1100.018188476563	-328.0498046875001	132.243637084961	-1009.346557617188	-427.6312866210939	101.9945678710938	-1041.118408203125	-216.5215606689454	54.9810028076172	-1020.139770507813	-208.8656463623047	54.87529373168947	-1069.718505859375	-260.8354797363282	39.7740821838379	-1120.748291015625	-237.5491333007813	784.3369750976565	-787.7226562500002	-182.5250854492188	748.1843261718751	-774.673278808594	-150.6594390869141	759.0994873046876	-776.2928466796877	-179.3217010498047	664.4521484375001	-782.5072021484377	-181.7992706298828	605.8935546875001	-785.3089599609377	-106.2290954589844	588.5957641601564	-900.7490844726565	-218.6863250732422	502.8621520996095	-806.2205200195315	-324.6005249023438	524.3801879882814	-804.8784179687502	-303.2718200683594	483.2222290039064	-811.7636718750002	-329.1141052246094	446.0028076171876	-847.504577636719	-508.354461669922	404.6671752929689	-880.3985595703127	-447.2312622070314	385.2456665039064	-953.3153076171877	-558.2587890625001	427.9105529785157	-955.8395996093752	-426.512420654297	248.0878143310547	-928.506774902344	-433.1202697753907	252.0184173583985	-881.029235839844	-490.3898315429689	276.1344909667969	-847.6701660156252	
387	1.93	-194.1467437744141	1783.009399414063	-1061.6337890625	-354.9194641113282	1733.98974609375	-1136.572631835938	-376.6083374023438	1736.501342773438	-997.8005371093752	-406.712371826172	1558.32958984375	-1054.543701171875	-413.6599731445314	1227.0146484375	-1051.993530273438	-259.0271301269532	1508.775756835938	-1057.023803710938	-334.8843688964844	1554.114501953125	-1209.332885742188	-177.7204895019532	1434.720092773438	-1324.554443359375	-146.3535766601563	1469.744995117188	-1310.865478515625	-108.9432144165039	1427.312622070313	-1332.346069335938	-50.64256668090822	1431.979248046875	-1326.792602539063	-51.72009277343751	1365.930786132813	-1281.503540039063	190.2628326416016	1465.318969726563	-1210.109130859375	218.9260406494141	1434.567749023438	-1276.238037109375	283.7875366210938	1489.77978515625	-1214.92822265625	-332.7510681152344	1560.037719726563	-910.178894042969	-178.1195068359375	1441.87353515625	-783.1181640625002	-142.7295532226563	1471.757080078125	-795.251159667969	-110.4412994384766	1424.2109375	-773.0214843750002	-65.03585815429689	1417.702514648438	-775.9833984375002	-70.19708251953126	1361.675048828125	-827.8715820312502	183.0695343017578	1482.48779296875	-906.322692871094	196.8672790527344	1450.458862304688	-835.2116699218752	258.6238403320313	1517.472412109375	-901.0999145507815	-210.6138916015626	1057.154296875	-1154.642333984375	-231.5614624023438	1073.382202148438	-902.053649902344	-409.8157043457032	1141.605102539063	-1046.488159179688	-412.7373046875001	1108.584594726563	-1072.7900390625	-417.3123474121095	1109.963256835938	-1016.109924316406	-295.5511169433594	810.7969360351565	-1222.175170898438	-265.4421691894532	731.6904907226564	-1209.740234375	-218.6348571777344	735.4233398437501	-1201.562133789063	-296.7183532714844	682.1566772460939	-1190.75146484375	-303.5768127441407	527.8594360351564	-1156.389404296875	-281.7077331542969	535.8118896484376	-1019.252075195313	-269.9408874511719	367.1500244140626	-1087.243530273438	-318.8657836914063	317.3401794433594	-1139.034790039063	-280.2262878417969	315.4297790527344	-1114.688720703125	-292.6969299316407	243.3257751464844	-1072.536743164063	-358.3788452148438	110.8974914550782	-1100.017211914063	-328.0735168457032	132.2523498535157	-1009.359680175781	-427.6233825683595	102.0040054321289	-1041.143920898438	-216.5173645019532	54.9802703857422	-1020.170837402344	-208.7985382080079	54.7361526489258	-1069.779174804688	-260.7785949707032	39.75109100341798	-1120.72314453125	-237.8166198730469	784.1187744140627	-788.145935058594	-182.8686676025391	747.9356689453126	-775.1434326171877	-150.9252166748047	758.7668457031251	-777.0220947265627	-179.7277374267578	664.1593017578126	-783.148864746094	-182.5470275878907	605.9704589843751	-785.937683105469	-106.689323425293	588.6932373046876	-901.506042480469	-220.0863800048829	503.5170898437501	-807.4350585937502	-325.7848815917969	526.2686767578126	-806.3593750000002	-305.4215698242188	484.9815979003907	-813.127624511719	-331.2768859863282	448.1897888183595	-849.2778320312502	-510.8687744140626	408.8588867187501	-882.6696777343752	-449.6416015625001	389.3158569335939	-955.6890869140627	-560.6467285156251	433.3262939453126	-958.0020141601565	-430.9656372070314	251.6135253906251	-932.173278808594	-437.3255920410157	255.7089080810547	-884.3433837890627	-494.7919921875001	279.9815673828126	-851.0924072265627	
